<svg width="26" height="26" viewBox="0 0 26 26" fill="none" xmlns="http://www.w3.org/2000/svg">
<path d="M24.375 2.43466L17.8693 2.43468V0.815369C17.8693 0.366462 17.5057 0.00286865 17.0568 0.00286865C16.6079 0.00286865 16.2443 0.366462 16.2443 0.815369V2.43427H9.74431V0.815369C9.74431 0.366462 9.38072 0.00286865 8.93181 0.00286865C8.48291 0.00286865 8.11931 0.366462 8.11931 0.815369V2.43427H1.625C0.727594 2.43427 0 3.16187 0 4.05927V24.3718C0 25.2692 0.727594 25.9968 1.625 25.9968H24.375C25.2724 25.9968 26 25.2692 26 24.3718V4.05927C26 3.16225 25.2724 2.43466 24.375 2.43466ZM24.375 24.3718H1.625V4.05927H8.11931V4.87787C8.11931 5.32675 8.48291 5.69037 8.93181 5.69037C9.38072 5.69037 9.74431 5.32675 9.74431 4.87787V4.05968H16.2443V4.87827C16.2443 5.32718 16.6079 5.69077 17.0568 5.69077C17.5057 5.69077 17.8693 5.32718 17.8693 4.87827V4.05968H24.375V24.3718ZM18.6875 12.9972H20.3125C20.761 12.9972 21.125 12.6332 21.125 12.1847V10.5597C21.125 10.1112 20.761 9.74716 20.3125 9.74716H18.6875C18.239 9.74716 17.875 10.1112 17.875 10.5597V12.1847C17.875 12.6332 18.239 12.9972 18.6875 12.9972ZM18.6875 19.4967H20.3125C20.761 19.4967 21.125 19.1332 21.125 18.6842V17.0592C21.125 16.6108 20.761 16.2467 20.3125 16.2467H18.6875C18.239 16.2467 17.875 16.6108 17.875 17.0592V18.6842C17.875 19.1336 18.239 19.4967 18.6875 19.4967ZM13.8125 16.2467H12.1875C11.739 16.2467 11.375 16.6108 11.375 17.0592V18.6842C11.375 19.1332 11.739 19.4967 12.1875 19.4967H13.8125C14.261 19.4967 14.625 19.1332 14.625 18.6842V17.0592C14.625 16.6112 14.261 16.2467 13.8125 16.2467ZM13.8125 9.74716H12.1875C11.739 9.74716 11.375 10.1112 11.375 10.5597V12.1847C11.375 12.6332 11.739 12.9972 12.1875 12.9972H13.8125C14.261 12.9972 14.625 12.6332 14.625 12.1847V10.5597C14.625 10.1107 14.261 9.74716 13.8125 9.74716ZM7.3125 9.74716H5.6875C5.239 9.74716 4.875 10.1112 4.875 10.5597V12.1847C4.875 12.6332 5.239 12.9972 5.6875 12.9972H7.3125C7.761 12.9972 8.125 12.6332 8.125 12.1847V10.5597C8.125 10.1107 7.761 9.74716 7.3125 9.74716ZM7.3125 16.2467H5.6875C5.239 16.2467 4.875 16.6108 4.875 17.0592V18.6842C4.875 19.1332 5.239 19.4967 5.6875 19.4967H7.3125C7.761 19.4967 8.125 19.1332 8.125 18.6842V17.0592C8.125 16.6112 7.761 16.2467 7.3125 16.2467Z" fill="#4A4A4A"/>
</svg>
